<svg xmlns="http://www.w3.org/2000/svg" version="1.1" xmlns:xlink="http://www.w3.org/1999/xlink" width="512" height="512" x="0" y="0" viewBox="0 0 2000 2000" style="enable-background:new 0 0 512 512" xml:space="preserve" class=""><g><g data-name="Full stack web development"><path fill="#2351fb" d="M853.93 819.08h-623a27.86 27.86 0 0 1-27.83-27.83V373.51a27.86 27.86 0 0 1 27.83-27.83h623a27.86 27.86 0 0 1 27.83 27.83v417.74a27.86 27.86 0 0 1-27.83 27.83zm-623-465.4a19.85 19.85 0 0 0-19.83 19.83v417.74a19.85 19.85 0 0 0 19.83 19.83h623a19.85 19.85 0 0 0 19.83-19.83V373.51a19.85 19.85 0 0 0-19.83-19.83z" opacity="1" data-original="#2351fb"></path><circle cx="254.27" cy="391.71" r="15.44" fill="#2351fb" opacity="1" data-original="#2351fb"></circle><circle cx="318.17" cy="391.71" r="15.44" fill="#2351fb" opacity="1" data-original="#2351fb"></circle><circle cx="382.06" cy="391.71" r="15.44" fill="#2351fb" opacity="1" data-original="#2351fb"></circle><rect width="646.74" height="614.22" x="1252.25" y="342.16" fill="#2351fb" rx="23.83" opacity="1" data-original="#2351fb"></rect><circle cx="1305.45" cy="378.07" r="13.19" fill="#ffffff" opacity="1" data-original="#ffffff"></circle><circle cx="1360.02" cy="378.07" r="13.19" fill="#ffffff" opacity="1" data-original="#ffffff"></circle><circle cx="1414.6" cy="378.07" r="13.19" fill="#ffffff" opacity="1" data-original="#ffffff"></circle><g fill="#2351fb"><rect width="206.64" height="10.88" x="244.7" y="446.39" rx="5.44" fill="#2351fb" opacity="1" data-original="#2351fb"></rect><rect width="90.85" height="10.88" x="302.73" y="506.84" rx="5.44" fill="#2351fb" opacity="1" data-original="#2351fb"></rect><rect width="239.7" height="10.88" x="302.73" y="567.29" rx="5.44" fill="#2351fb" opacity="1" data-original="#2351fb"></rect><rect width="426.33" height="10.88" x="302.73" y="688.18" rx="5.44" fill="#2351fb" opacity="1" data-original="#2351fb"></rect><rect width="159.2" height="10.88" x="302.73" y="748.63" rx="5.44" fill="#2351fb" opacity="1" data-original="#2351fb"></rect><rect width="123.08" height="10.88" x="470.15" y="446.39" rx="5.44" fill="#2351fb" opacity="1" data-original="#2351fb"></rect><rect width="416.18" height="10.88" x="424.41" y="506.84" rx="5.44" fill="#2351fb" opacity="1" data-original="#2351fb"></rect><rect width="79.6" height="10.88" x="571.66" y="567.29" rx="5.44" fill="#2351fb" opacity="1" data-original="#2351fb"></rect><rect width="68.36" height="10.88" x="492.06" y="748.63" rx="5.44" fill="#2351fb" opacity="1" data-original="#2351fb"></rect><rect width="74.97" height="10.88" x="623.35" y="446.39" rx="5.44" fill="#2351fb" opacity="1" data-original="#2351fb"></rect><rect width="206.64" height="10.88" x="244.7" y="629.85" rx="5.44" fill="#2351fb" opacity="1" data-original="#2351fb"></rect><rect width="123.08" height="10.88" x="470.15" y="629.85" rx="5.44" fill="#2351fb" opacity="1" data-original="#2351fb"></rect><rect width="74.97" height="10.88" x="623.35" y="629.85" rx="5.44" fill="#2351fb" opacity="1" data-original="#2351fb"></rect><rect width="159.2" height="10.88" x="681.38" y="567.29" rx="5.44" fill="#2351fb" opacity="1" data-original="#2351fb"></rect><rect width="85.23" height="10.88" x="755.36" y="688.18" rx="5.44" fill="#2351fb" opacity="1" data-original="#2351fb"></rect><rect width="247.36" height="10.88" x="593.23" y="748.63" rx="5.44" fill="#2351fb" opacity="1" data-original="#2351fb"></rect></g><rect width="299.7" height="232.04" x="729.06" y="219.79" fill="#fdc500" rx="22.85" opacity="1" data-original="#fdc500" class=""></rect><path fill="#68003c" d="M844.16 427.26A30.26 30.26 0 0 1 813.93 397v-37.63a10 10 0 0 0-6-9.17l-14.61-6.36a6 6 0 0 1 .22-11.09l13-5.07a8.1 8.1 0 0 0 5.18-7.59v-40.37a32.48 32.48 0 0 1 32.45-32.44 6 6 0 1 1 0 12 20.47 20.47 0 0 0-20.45 20.44v40.37a20 20 0 0 1-12.28 18.55l1.27.55a22 22 0 0 1 13.23 20.18V397a18.26 18.26 0 0 0 18.23 18.24 6 6 0 1 1 0 12zM910.76 427.26a6 6 0 0 1 0-12A18.26 18.26 0 0 0 929 397v-37.63a22 22 0 0 1 13.24-20.18l1.26-.55a20 20 0 0 1-12.28-18.55v-40.37a20.47 20.47 0 0 0-20.45-20.44 6 6 0 0 1 0-12 32.48 32.48 0 0 1 32.45 32.44v40.37a8.1 8.1 0 0 0 5.19 7.59l13 5.07a6 6 0 0 1 .22 11.09L947 350.2a10 10 0 0 0-6 9.17V397a30.26 30.26 0 0 1-30.24 30.26z" opacity="1" data-original="#68003c"></path><path fill="#ffffff" d="M1509.86 760.61a10 10 0 0 1-6.53-2.43l-95.27-82.35a10 10 0 0 1-1.3-13.77l71.9-90.75a10 10 0 0 1 15.68 12.43L1428.39 667l88 76.08a10 10 0 0 1-6.53 17.53zM1659.34 760.61a10 10 0 0 1-6.54-17.56l88-76.08-66-83.23a10 10 0 0 1 15.68-12.43l71.89 90.75a10 10 0 0 1-1.3 13.77l-95.26 82.35a10 10 0 0 1-6.47 2.43zM1564.14 765.71a10 10 0 0 1-9.67-12.6l50.17-186.34A10 10 0 1 1 1624 572l-50.21 186.3a10 10 0 0 1-9.65 7.41z" opacity="1" data-original="#ffffff"></path><path fill="#e67925" d="m1221.44 882.21-208.39 63.4a144.68 144.68 0 0 0-101.41 120.18l-52.2 411.08-162.67 245.34 123.62 23.33 204.38-180.67q51.75-257.32 103.48-514.66z" opacity="1" data-original="#e67925"></path><path fill="#e67925" d="m1284.099 920.817-98.105 7.282-13.836-186.41 98.105-7.28z" opacity="1" data-original="#e67925"></path><path fill="#e67925" d="M1205.66 557.88c-73.78.35-127.62 70.47-108.44 142.1l18.84 85.91c6.88 31.39 33.5 55.46 62.58 57.73a94.81 94.81 0 0 0 18.58-.9c42.79-6.75 66.84-51.33 80.29-76.26 2.29-4.23 4.78-9.21 7.31-14.88a112.8 112.8 0 0 0-79.16-193.7z" opacity="1" data-original="#e67925"></path><path fill="#262246" d="M1169.74 773.18a6.76 6.76 0 0 1-6.61-8.17l8-37.35a2 2 0 1 1 3.91.84l-8 37.35a2.75 2.75 0 0 0 2.74 3.33l13.62-.25a2 2 0 0 1 0 4zM1138.63 713.92a9.6 9.6 0 1 0 9.64 9.55 9.6 9.6 0 0 0-9.64-9.55zM1211.48 713.57a9.6 9.6 0 1 0 9.64 9.56 9.59 9.59 0 0 0-9.64-9.56zM1235.17 688.58c-11.05-10.38-27.6-6.19-30.37-5.49-2.35.6-10.28 2.64-10.62 6.44-.2 2.16 2.16 4 2.26 4 5.13 3.83 12-3.56 22.5-3.49 12.22.09 20.13 10.15 21.77 8.31 1.09-1.18-1.8-6.25-5.54-9.77zM1144.23 683c-2.77-.71-19.31-5-30.38 5.4-3.76 3.51-6.67 8.57-5.58 9.79 1.64 1.85 9.58-8.19 21.81-8.24 10.54 0 17.34 7.37 22.48 3.56.1-.08 2.46-1.87 2.27-4-.32-3.84-8.26-5.91-10.6-6.51z" opacity="1" data-original="#262246"></path><path fill="#68003c" d="M1181.16 846.68a2 2 0 0 1-2-2 2 2 0 0 1 2.06-2 68.22 68.22 0 0 0 57.6-28.76 2 2 0 0 1 3.27 2.31 72.2 72.2 0 0 1-60.93 30.45z" opacity="1" data-original="#68003c"></path><path fill="#e67925" d="M1264.68 886.89 1484 917.67a200.28 200.28 0 0 1 150.77 107.73l251.84 496.38-181.91 60.64c-367.07-590.42-274.01-443.79-440.02-695.53z" opacity="1" data-original="#e67925"></path><path fill="#fdc500" d="m979.44 978.21 242-96 318 61.33-32 810.67H984.77q-2.65-388-5.33-776z" opacity="1" data-original="#fdc500" class=""></path><path fill="#e67925" d="m1168.77 1548.87 672-109.33c13.12 18.6 89.42 129.31 49.34 192-28.39 44.4-101.46 43.28-146.67 42.67-159.51-2.17-334.53-3-540-4z" opacity="1" data-original="#e67925"></path><path fill="#fdc500" d="m1221.44 877.21 272.73 35.22a213.49 213.49 0 0 1 159 107.62l195.58 350.16-273.15 85.33-148.18-368z" opacity="1" data-original="#fdc500" class=""></path><path fill="#fdc500" d="m897.84 1072.23-100.4 356 284 42 82.71-484.72 62.78-108.28-185.37 51.72a207.16 207.16 0 0 0-143.72 143.28z" opacity="1" data-original="#fdc500" class=""></path><path fill="#e67925" d="M1182.65 889.56s1.39 35.31 42.72 38.31 55.6-43 55.6-43L1262 857.21l-49.34 5.33-24.66 13z" opacity="1" data-original="#e67925"></path><path fill="#68003c" d="M1255.2 667.16s-34-2.33-37.64-42.33c0 0-41.46-22-52.58 4s-33.54 28-33.54 28-18.57 61.18-65.57 41.59-86-111.59-28-167.59 133.91-16 133.91-16S1206 474.15 1241 501c0 0 91.92-11.16 108.92 77.84s-74.59 227.89-74.59 227.89c-11.77-83.98-7.14-51.94-20.13-139.57z" opacity="1" data-original="#68003c"></path><path fill="#e67925" d="M1289.9 705.46c-12.41-6.42-28.56.15-36.07 14.67s-3.55 31.51 8.86 37.92 28.56-.15 36.07-14.67 3.55-31.5-8.86-37.92z" opacity="1" data-original="#e67925"></path><path fill="#262246" d="M1269.63 745.9a9.56 9.56 0 0 0-.09-18.19 2 2 0 0 1 .63-3.9l19-.09a2 2 0 0 1 0 4l-12.46.06a13.49 13.49 0 0 1-5.76 21.9 2 2 0 0 1-1.32-3.78z" opacity="1" data-original="#262246"></path><path fill="#68003c" d="M1523.94 1338.21a2 2 0 0 1-2-2v-264.67a2 2 0 0 1 4 0v264.67a2 2 0 0 1-2 2z" opacity="1" data-original="#68003c"></path><path fill="#e67925" d="m1215.7 1542.21-205 9.33q-31.58 51.33-63.16 102.67c-5.28 9.78-2.94 21.67 4.83 28 9.08 7.39 23.87 5.81 31.88-4.68l42-70.66-22.5 81.34c1.7 19.41 22.83 20.93 34.09 6.75l26.41-74.19-4.5 68.77a18.6 18.6 0 0 0 36.09 3.42q3.2-31.38 6.41-62.75l3.84 63a16.69 16.69 0 0 0 32.5.25l5.16-44.59 28.49 23.68a41.17 41.17 0 0 0 41.59 6.56l33.92-13.57q-16.04-61.66-32.05-123.33z" opacity="1" data-original="#e67925"></path><path fill="#68003c" d="M1636.5 1474.77a2 2 0 0 1-.32-4l149.57-24.34a2 2 0 1 1 .64 4c-155.81 25.33-149.49 24.34-149.89 24.34z" opacity="1" data-original="#68003c"></path><path fill="#262246" d="M1172.87 788.54 1214 779a21.15 21.15 0 0 1-41.17 9.5z" opacity="1" data-original="#262246"></path><path fill="#2351fb" d="M775.04 1726.2h-192l26-256h140z" opacity="1" data-original="#2351fb"></path><path fill="#68003c" d="M919.2 1699.54h31v20.67h-31zM957.2 1699.54h31v20.67h-31zM995.2 1699.54h31v20.67h-31zM1033.2 1699.54h31v20.67h-31zM1071.2 1699.54h31v20.67h-31zM1109.2 1699.54h31v20.67h-31zM1147.2 1699.54h31v20.67h-31zM1185.2 1699.54h31v20.67h-31zM1223.2 1699.54h31v20.67h-31zM1261.2 1699.54h31v20.67h-31zM1299.2 1699.54h31v20.67h-31z" opacity="1" data-original="#68003c"></path><path fill="#2351fb" d="M1150.94 1622.2h-849.9l-48-572h857.4zM937.87 1733.97H389.54l27.36-41.31h493.6z" opacity="1" data-original="#2351fb"></path><path fill="#2351fb" d="M639.04 1709.32h712v36.22h-712z" opacity="1" data-original="#2351fb"></path><path fill="#68003c" d="M98.37 1734.21h1803.26v46H98.37zM593.6 1624.21a2 2 0 0 1-2-2.21l15.4-152a2 2 0 0 1 2-1.79h140a2 2 0 0 1 2 1.77l16 142.67a2 2 0 1 1-4 .44l-15.8-140.88H610.84l-15.25 150.2a2 2 0 0 1-1.99 1.8z" opacity="1" data-original="#68003c"></path></g></g></svg>